<svg xmlns="http://www.w3.org/2000/svg"  viewBox="0 0 64 64" width="64px" height="64px"><path d="M 13 7 L 13 59 L 30.136719 49.980469 C 31.302719 49.366469 32.697281 49.366469 33.863281 49.980469 L 51 59 L 51 46.71875 C 50.027 46.89775 49.026 47 48 47 C 39.163 47 32 40.06 32 31.5 C 32 22.94 39.163 16 48 16 C 49.026 16 50.027 16.10225 51 16.28125 L 51 7 L 13 7 z M 48 17.960938 C 40.82 17.960937 35 23.780938 35 30.960938 C 35 38.140938 40.82 43.960938 48 43.960938 C 55.18 43.960938 61 38.140937 61 30.960938 C 61 23.780938 55.18 17.960938 48 17.960938 z M 52.242188 25.302734 L 53.65625 26.716797 L 50.828125 30.960938 L 53.65625 35.203125 L 52.242188 36.617188 L 48 33.789062 L 43.757812 36.617188 L 42.34375 35.203125 L 45.171875 30.960938 L 42.34375 26.71875 L 43.757812 25.304688 L 48 28.132812 L 52.242188 25.302734 z"/></svg>